<svg id="Camada_1" data-name="Camada 1" xmlns="http://www.w3.org/2000/svg" viewBox="0 0 789.8 709.42"><defs><style>.cls-1,.cls-5{fill:#0095d9;}.cls-2{fill:#004e82;}.cls-3{fill:#0073bb;}.cls-4{fill:#44b5c1;}.cls-5{font-size:159px;font-family:Vision-Bold, Vision;font-weight:700;}</style></defs><title>logo</title><path class="cls-1" d="M101.72,246.66s.1.92.31,2.68.43,4.44,1.07,7.7a121.23,121.23,0,0,0,8.11,27.56,114.69,114.69,0,0,0,24.87,35.65C148,332.17,163.91,343,182.61,352.82s40.27,18.34,63.66,26.64l36.36,12.73c12.51,4.44,25.41,9.07,38.63,14.63a204,204,0,0,1,20,9.57A122.62,122.62,0,0,1,361.48,430c6.57,5.66,13.37,13.11,17.3,23.5a48.22,48.22,0,0,1,3.05,16.26l-.08,3.37c0,.7-.14,2.28-.28,3.62a58.89,58.89,0,0,1-1.22,7.56,64.34,64.34,0,0,1-12.91,25.81,90.34,90.34,0,0,1-19.57,17.56c-13.83,9.44-28.28,15.42-42.42,20.9s-28.25,9.9-41.86,14.62-26.91,9.47-38,15.63c-5.45,3.05-10.26,6.6-12.87,10s-3.07,5.55-2.45,10.76c1.32,9.16,9.65,19,19.23,27.16s20.72,15.61,31.68,22.75,22.08,14.07,32.61,21.89a127.67,127.67,0,0,1,15.14,13c4.68,4.88,9.23,10.57,11.66,18.06a28.81,28.81,0,0,1,1.23,5.82,24.91,24.91,0,0,1,.17,3v1l0,.55-.07,1.09a35.29,35.29,0,0,1-2.68,10.67,56.24,56.24,0,0,1-10.44,15.9c-8,8.82-16.73,15.32-25.06,21.22s-16.5,10.88-24.08,15.6-14.65,9.06-20.85,13.36a92,92,0,0,0-8.45,6.49c-2.44,2.15-4.64,4.49-5.46,6.5a4.56,4.56,0,0,0-.36,1.31c0,.73,0,1.46,0,2.17,0,1.58.12,2.82.17,4.17a61,61,0,0,0,1.16,7.56,74.76,74.76,0,0,0,3.6,11.71c1.24,3.11,2.37,5.42,3.16,7l1.24,2.27L231,841.49s-.57-.79-1.53-2.34A81.81,81.81,0,0,1,220.9,820,65.54,65.54,0,0,1,219,811.9c-.19-1.5-.48-3.17-.54-4.63-.06-.79-.11-1.61-.16-2.42a10.45,10.45,0,0,1,.52-3.32c1.4-4.06,3.95-6.81,6.55-9.53a97.2,97.2,0,0,1,8.66-7.6c6.18-4.91,13-9.74,20.28-14.94s14.91-10.66,22.57-16.78,15.41-12.89,21.66-20.78a43.76,43.76,0,0,0,7.18-12.5,21.74,21.74,0,0,0,1.18-6.1v-1.64c0,.37,0-.09-.05-.1a10.53,10.53,0,0,0-.17-1.36,14.88,14.88,0,0,0-.8-2.77c-1.48-3.74-4.73-7.67-8.67-11.35a109.89,109.89,0,0,0-13.64-10.5c-20.11-13.52-44.42-24.57-67.73-42.23a106.56,106.56,0,0,1-16.79-15.84c-5.15-6.23-10-14-12-23.34-.23-1.2-.49-2.25-.64-3.68l-.23-2-.09-1.41a34.7,34.7,0,0,1,.43-7.95,36.14,36.14,0,0,1,6.17-14.59c5.85-8.18,12.94-13.2,19.76-17.55,13.79-8.4,27.68-14,41.37-19.56s27.23-10.66,40.08-16.48S319,508.73,329,501.3a66.73,66.73,0,0,0,12.42-11.86,32.34,32.34,0,0,0,6.16-12.7,25.81,25.81,0,0,0,.55-3.08,10.4,10.4,0,0,0,.16-1.74l.06-1.35,0-.67v-.34c0-.25,0,.92,0,.35a14.7,14.7,0,0,0-.86-4.71c-1.11-3.06-3.84-6.73-7.78-10.35-8.12-7.29-19.84-13.43-31.51-19.1-23.69-11.33-48.86-20.31-72.09-30.66-23.37-10.13-45.45-20.8-64.61-33.22-19.26-12.2-35.5-26.26-47.27-41.06a120.42,120.42,0,0,1-22.33-43A113.78,113.78,0,0,1,98,257.37c-.05-3.56.21-6.14.3-7.93s.16-2.69.16-2.69Z" transform="translate(-98.03 -153.58)"/><path class="cls-2" d="M307.77,286,278.9,863,250,286.07a60,60,0,0,0,57.75-.07Z" transform="translate(-98.03 -153.58)"/><path class="cls-3" d="M459.3,246.75s.05.93.16,2.73.34,4.42.28,8a111.9,111.9,0,0,1-4.22,30.81,120.55,120.55,0,0,1-23.34,43.1c-12.18,14.74-28.85,28.65-48.46,40.73C364.19,384.44,341.77,395,318,405c-23.62,10.26-49.15,19.16-73.36,30.36-11.89,5.64-24,11.63-32.55,18.93-4.28,3.59-7.28,7.38-8.57,10.46a11.22,11.22,0,0,0-1,4.63l0,.3v.15c0-.21,0,.68,0-.44l.06,1.36.05,1.36,0,.68.06.3a11.75,11.75,0,0,1,.16,1.21l.32,1.65a31,31,0,0,0,6.14,12.66,65.68,65.68,0,0,0,12.64,11.88c10.21,7.42,22.7,13.8,35.73,19.5s26.8,10.87,40.69,16.17,28,10.76,42,18.4c7,3.9,14.09,8.3,20.66,15.17a40.42,40.42,0,0,1,8.37,12.82,32.22,32.22,0,0,1,2.12,8.1,31,31,0,0,1,.28,4.18l0,.52,0,.77,0,.67-.08,1.34c-.93,10.63-5.08,18.75-10.05,25.7a93.17,93.17,0,0,1-16.56,17c-11.67,9.48-23.75,16.65-35.39,23.51s-23,13.08-33.28,19.77a127.58,127.58,0,0,0-14.16,10.45c-4.18,3.65-7.7,7.58-9.65,11.4-3.94,6.79-.4,16.66,5.72,24.57,6.09,8.08,13.92,15,21.57,21.22s15.45,11.79,22.78,17,14.28,10.14,20.54,15.07a102.9,102.9,0,0,1,8.8,7.62c2.68,2.68,5.23,5.46,6.81,9.35a12.55,12.55,0,0,1,.6,5.94c-.07,1.48-.3,3.12-.52,4.65a63.52,63.52,0,0,1-1.84,8.27A80.49,80.49,0,0,1,332.23,832c-1.57,3.2-3,5.54-3.91,7.11s-1.55,2.37-1.55,2.37l-2.67-1.77s.42-.79,1.24-2.3a73.17,73.17,0,0,0,3.2-7,74.23,74.23,0,0,0,3.61-11.86,57.59,57.59,0,0,0,1.12-7.65c.08-1.33.19-2.66.15-4.24,0-1.88,0-2.26-.49-3.35-1-2.09-3.25-4.42-5.77-6.59a102.92,102.92,0,0,0-8.64-6.52c-6.3-4.34-13.47-8.73-21.14-13.5s-15.9-9.91-24.35-15.87-17.22-12.7-25.18-21.87a52.22,52.22,0,0,1-10-16.71,35.28,35.28,0,0,1-1.39-5.26c-.18-.92-.29-2.05-.41-3l-.07-1.11,0-.54,0-.59v-.38a30.42,30.42,0,0,1,2.39-11.64c3-7.12,7.75-12.51,12.59-17.24a144.1,144.1,0,0,1,15.47-12.71c10.69-7.75,21.91-14.7,33-22s22.12-14.71,31.58-23.27a71.34,71.34,0,0,0,12-13.56,34.42,34.42,0,0,0,3.59-7.11,22.18,22.18,0,0,0,1-3.49c.15-.57.16-1.15.27-1.72l.12-1.3v-2c0,.08,0-.66,0,.1l0-.15a7.36,7.36,0,0,0-.16-1.16,8.18,8.18,0,0,0-.74-2.24,16.89,16.89,0,0,0-3.71-4.92c-3.58-3.49-9-6.81-14.86-9.71-11.87-5.8-25.55-10.37-39.38-15s-28.2-9.07-42.61-14.37-29-11.38-43.1-20.79a89.72,89.72,0,0,1-19.92-17.69,62.45,62.45,0,0,1-13-26.36l-.69-3.72-.45-4.21-.09-1.06,0-.68-.05-1.36,0-1.36a9.36,9.36,0,0,1,0-1.12l0-.52.06-1.07a44.3,44.3,0,0,1,3.8-16.4c4.45-10.23,11.53-17.34,18.25-22.73a127.32,127.32,0,0,1,20.56-13.15c6.81-3.59,13.59-6.61,20.31-9.34,13.41-5.44,26.49-10,39.19-14.39l36.91-12.58c23.75-8.22,45.61-16.8,64.78-26.38s35.4-20.44,47.65-32.32A114.85,114.85,0,0,0,446.31,285a118.5,118.5,0,0,0,8.36-27.81c.66-3.3.89-6,1.1-7.78s.31-2.72.31-2.72Z" transform="translate(-98.03 -153.58)"/><polygon class="cls-2" points="74.4 109.29 286.25 109.29 283.68 154.75 75.26 154.75 74.4 109.29"/><polygon class="cls-2" points="74.4 65.55 283.87 65.55 284.57 33.46 274.24 24.38 254.52 21.8 229.64 21.8 221.07 19.23 209.92 11.51 198.77 4.65 187.62 2.08 168.75 2.94 155.88 5.51 143.87 15.8 130.15 21.8 117.28 21.8 94.13 22.66 85.55 24.38 75.26 32.1 74.4 38.1 74.4 65.55"/><path class="cls-3" d="M339.33,234.8a59.61,59.61,0,0,1-27.88,50.42,59.32,59.32,0,0,1-63.79.09,59.75,59.75,0,1,1,91.67-50.51Z" transform="translate(-98.03 -153.58)"/><circle class="cls-2" cx="182.04" cy="80.56" r="49.32"/><path class="cls-1" d="M242.15,214.78a42.85,42.85,0,0,0,1.29,40.69l30-35.17Z" transform="translate(-98.03 -153.58)"/><path class="cls-1" d="M278.16,191.22A42.84,42.84,0,0,0,243.09,213l45.74,8.07Z" transform="translate(-98.03 -153.58)"/><path class="cls-1" d="M318.65,253.1a42.85,42.85,0,0,0-1.28-40.67l-30,35.15Z" transform="translate(-98.03 -153.58)"/><path class="cls-1" d="M316.32,210.73a42.87,42.87,0,0,0-36.16-19.57l15.6,43.68Z" transform="translate(-98.03 -153.58)"/><path class="cls-1" d="M244.49,257.17a42.82,42.82,0,0,0,36.64,19.54L265.05,233Z" transform="translate(-98.03 -153.58)"/><path class="cls-1" d="M283.13,276.63a42.82,42.82,0,0,0,34.58-21.77l-45.56-8Z" transform="translate(-98.03 -153.58)"/><path class="cls-2" d="M243.66,164.49a23.72,23.72,0,0,1-18.58,8.93H191.49A22.52,22.52,0,0,0,169,195.91h5.29a17.22,17.22,0,0,1,17.2-17.2h33.59a29,29,0,0,0,22.71-10.91,23.65,23.65,0,0,1,18.57-8.93h11.11v-5.29H266.36A28.93,28.93,0,0,0,243.66,164.49Z" transform="translate(-98.03 -153.58)"/><path class="cls-2" d="M363.51,173.42H329.92a23.72,23.72,0,0,1-18.58-8.93,28.93,28.93,0,0,0-22.7-10.91H277.53v5.29h11.11a23.65,23.65,0,0,1,18.57,8.93,29,29,0,0,0,22.71,10.91h33.59a17.22,17.22,0,0,1,17.2,17.2H386A22.52,22.52,0,0,0,363.51,173.42Z" transform="translate(-98.03 -153.58)"/><path class="cls-2" d="M217.54,178.71H201.8a10.25,10.25,0,0,1,0-20.5h15.74a10.25,10.25,0,0,1,0,20.5ZM201.8,163.5a5,5,0,0,0,0,9.92h15.74a5,5,0,0,0,0-9.92Z" transform="translate(-98.03 -153.58)"/><path class="cls-2" d="M377.58,311.87H177.42a8.43,8.43,0,0,1-8.42-8.42V287.3h5.29v16.15a3.14,3.14,0,0,0,3.13,3.13H377.58a3.14,3.14,0,0,0,3.13-3.13V287.3H386v16.15A8.43,8.43,0,0,1,377.58,311.87Z" transform="translate(-98.03 -153.58)"/><path class="cls-4" d="M169.86,197.68" transform="translate(-98.03 -153.58)"/><polygon class="cls-2" points="282.62 40.74 282.62 133.91 287.97 133.91 287.97 41.53 282.62 40.74"/><polygon class="cls-2" points="76.33 40.97 76.33 134.14 70.98 134.14 70.98 41.77 76.33 40.97"/><text class="cls-5" transform="translate(281.28 327.87)">P</text><text class="cls-5" transform="translate(380.19 328.81)">H</text><text class="cls-5" transform="translate(386.56 442.37)">O</text><text class="cls-5" transform="translate(485.05 328.27)">O</text><text class="cls-5" transform="translate(590.53 328.15)">T</text><text class="cls-5" transform="translate(282.02 442.05)">D</text><text class="cls-5" transform="translate(679.14 328.98)">O</text><text class="cls-5" transform="translate(499.2 443)">C</text><polygon class="cls-2" points="179.59 0.01 178.91 0.03 179.46 3.26 179.9 0.36 179.59 0.01"/></svg>